<?xml version="1.0" encoding="utf-8"?>
<!-- Generator: Adobe Illustrator 21.1.0, SVG Export Plug-In . SVG Version: 6.00 Build 0)  -->
<svg version="1.1" id="Layer_1" xmlns="http://www.w3.org/2000/svg" xmlns:xlink="http://www.w3.org/1999/xlink" x="0px" y="0px"
	 viewBox="0 0 33 33" style="enable-background:new 0 0 33 33;" xml:space="preserve">
<style type="text/css">
	.st0{fill:#991782;}
	.st1{fill:#FFFFFF;}
</style>
<g>
</g>
<g>
	<g>
		<g>
			<path class="st0" d="M32.3,16.7c0,8.6-7,15.5-15.5,15.5s-15.5-7-15.5-15.5s7-15.5,15.5-15.5S32.3,8.1,32.3,16.7"/>
		</g>
		<path class="st1" d="M26.5,22h0.3v0.8c0.2-0.5,0.7-0.8,1.1-0.8v0.3l0,0c-0.6,0-1.1,0.5-1.1,1.3v0.9h-0.3V22L26.5,22z M25.4,21.4
			h0.3V21h-0.3V21.4z M25.4,24.6h0.3v-2.6h-0.3V24.6z M22.3,23.8L22.3,23.8c0-0.6,0.5-0.8,1.1-0.8c0.4,0,0.7,0.1,0.8,0.1V23
			c0-0.6-0.3-0.8-0.8-0.8c-0.3,0-0.6,0.1-0.8,0.2l-0.1-0.2c0.3-0.1,0.6-0.2,0.9-0.2c0.4,0,0.7,0.1,0.8,0.3c0.2,0.2,0.3,0.4,0.3,0.8
			v1.5h-0.3v-0.5c-0.2,0.3-0.5,0.5-1,0.5C22.9,24.6,22.3,24.4,22.3,23.8L22.3,23.8z M24.4,23.6v-0.3c-0.2-0.1-0.5-0.1-0.8-0.1
			c-0.6,0-0.8,0.3-0.8,0.6l0,0c0,0.4,0.4,0.6,0.8,0.6C23.9,24.5,24.4,24.1,24.4,23.6L24.4,23.6z"/>
		<path class="st1" d="M8.4,17.1H8.2c0,0-0.2,0-0.2-0.1l0,0l0,0l0,0l0,0c0,0,0.1-0.1,0.2-0.1h0.2l3.7-0.2l0.8-2.7l0,0v-0.1
			c0-0.2-0.2-0.4-0.4-0.4h-1.9c-0.2,0-0.3,0.1-0.4,0.3l0,0l-0.7,2.4l-0.8-2.4v-0.1c-0.1-0.1-0.2-0.2-0.4-0.2H7
			c-0.2,0-0.3,0.1-0.4,0.3l-0.8,2.4l-0.7-2.4l0,0c-0.1-0.2-0.2-0.3-0.4-0.3H3c-0.2,0-0.4,0.2-0.4,0.4V14l1.8,6l0,0
			c0.1,0.2,0.2,0.3,0.4,0.3h1.8c0.2,0,0.3-0.1,0.4-0.3l0.8-2.6L8.6,20l0,0l0,0l0,0c0.1,0.1,0.2,0.2,0.4,0.2h1.8
			c0.2,0,0.3-0.1,0.4-0.3v-0.1l0,0L12,17L8.4,17.1"/>
		<path class="st1" d="M15.7,16.6c0.1-0.4,0.4-0.8,0.8-0.8c0-0.2,0.1-1.3,0.2-1.4c0-0.1,0.1-0.1,0.1-0.1l0,0l0,0c0,0,0.1,0,0.1,0.1
			c0,0.1,0.1,1.2,0.2,1.4c0.4,0.1,0.7,0.5,0.8,0.8l2.7,0.1l0,0c-0.1-1.8-1.7-3.3-3.8-3.3c-2.2,0-3.7,1.5-3.8,3.4L15.7,16.6"/>
		<path class="st1" d="M17.6,17.4c-0.2,0.4-0.6,0.8-1,0.8s-0.8-0.3-1-0.8l-2.8-0.1c0.2,1.8,1.7,3.2,3.8,3.2s3.6-1.4,3.8-3.2
			L17.6,17.4"/>
		<path class="st1" d="M30.3,13.5h-1.9c-0.2,0-0.3,0.1-0.4,0.3l0,0l-0.7,2.4l-0.7-2.4v-0.1c-0.1-0.1-0.2-0.2-0.4-0.2h-1.7
			c-0.2,0-0.3,0.1-0.4,0.3l-0.8,2.4L23,13.8l0,0c-0.1-0.2-0.2-0.3-0.4-0.3h-1.9c-0.2,0-0.4,0.2-0.4,0.4V14l0.8,2.7l3.7,0.2h0.2
			c0,0,0.2,0,0.2,0.1l0,0l0,0l0,0l0,0c0,0-0.1,0.1-0.2,0.1h-0.2l-3.6,0.1l0.8,2.8l0,0c0.1,0.2,0.2,0.3,0.4,0.3h1.8
			c0.2,0,0.3-0.1,0.4-0.3l0.8-2.6l0.8,2.6l0,0l0,0l0,0c0.1,0.1,0.2,0.2,0.4,0.2h1.8c0.2,0,0.3-0.1,0.4-0.3v-0.1l0,0l1.8-6l0,0v-0.1
			C30.7,13.6,30.6,13.5,30.3,13.5"/>
	</g>
</g>
</svg>
