<?xml version="1.0" encoding="utf-8"?>
<!-- Generator: Adobe Illustrator 21.1.0, SVG Export Plug-In . SVG Version: 6.00 Build 0)  -->
<svg version="1.1" id="Layer_1" xmlns="http://www.w3.org/2000/svg" xmlns:xlink="http://www.w3.org/1999/xlink" x="0px" y="0px"
	 viewBox="0 0 110 110" style="enable-background:new 0 0 110 110;" xml:space="preserve">
<style type="text/css">
	.st0{filter:url(#Adobe_OpacityMaskFilter);}
	.st1{fill:#FFFFFF;}
	.st2{mask:url(#mask-2);fill:#991782;}
</style>
<g>
	<g>
		<g>
			<defs>
				<filter id="Adobe_OpacityMaskFilter" filterUnits="userSpaceOnUse" x="50.9" y="44.1" width="33" height="33">
					<feColorMatrix  type="matrix" values="1 0 0 0 0  0 1 0 0 0  0 0 1 0 0  0 0 0 1 0"/>
				</filter>
			</defs>
			<mask maskUnits="userSpaceOnUse" x="50.9" y="44.1" width="33" height="33" id="mask-2">
				<g class="st0">
					<polygon id="path-1" class="st1" points="50.9,77 83.9,77 83.9,44.1 50.9,44.1 					"/>
				</g>
			</mask>
			<path class="st2" d="M83.9,60.6c0,9.1-7.4,16.5-16.5,16.5c-9.1,0-16.5-7.4-16.5-16.5c0-9.1,7.4-16.5,16.5-16.5
				C76.5,44.1,83.9,51.5,83.9,60.6"/>
		</g>
		<path class="st1" d="M77.7,66.3H78v0.8c0.2-0.5,0.7-0.8,1.2-0.8v0.3h0c-0.6,0-1.2,0.5-1.2,1.4V69h-0.3V66.3L77.7,66.3z M76.5,65.6
			h0.3v-0.4h-0.3V65.6z M76.6,69h0.3v-2.8h-0.3V69z M73.3,68.2L73.3,68.2c0-0.6,0.5-0.9,1.2-0.9c0.4,0,0.7,0.1,0.9,0.1v-0.1
			c0-0.6-0.3-0.8-0.9-0.8c-0.3,0-0.6,0.1-0.9,0.2l-0.1-0.2c0.3-0.1,0.6-0.2,1-0.2c0.4,0,0.7,0.1,0.9,0.3c0.2,0.2,0.3,0.4,0.3,0.8V69
			h-0.3v-0.5c-0.2,0.3-0.5,0.5-1.1,0.5C73.9,69.1,73.3,68.8,73.3,68.2L73.3,68.2z M75.5,68v-0.3c-0.2-0.1-0.5-0.1-0.9-0.1
			c-0.6,0-0.9,0.3-0.9,0.6v0c0,0.4,0.4,0.6,0.8,0.6C75,68.9,75.5,68.5,75.5,68L75.5,68z"/>
		<path class="st1" d="M58.5,61.1c0,0-0.2,0-0.2,0c0,0-0.2,0-0.2-0.1c0,0,0,0,0,0v0v0c0,0,0,0,0,0c0,0,0.1-0.1,0.2-0.1
			c0,0,0.2,0,0.2,0l3.9-0.2l0.9-2.9c0,0,0,0,0,0c0,0,0-0.1,0-0.1c0-0.2-0.2-0.4-0.4-0.4h-2c-0.2,0-0.3,0.1-0.4,0.3c0,0,0,0,0,0
			l-0.7,2.6l-0.8-2.6l0-0.1c-0.1-0.1-0.2-0.2-0.4-0.2H57c-0.2,0-0.3,0.1-0.4,0.3l-0.8,2.6l-0.7-2.6c0,0,0,0,0,0
			c-0.1-0.2-0.2-0.3-0.4-0.3h-2c-0.2,0-0.4,0.2-0.4,0.4c0,0,0,0.1,0,0.1l1.9,6.4l0,0c0.1,0.2,0.2,0.3,0.4,0.3h1.9
			c0.2,0,0.3-0.1,0.4-0.3l0.9-2.8l0.9,2.8c0,0,0,0,0,0l0,0c0,0,0,0,0,0c0.1,0.1,0.2,0.2,0.4,0.2H61c0.2,0,0.3-0.1,0.4-0.3l0-0.1
			c0,0,0,0,0,0l0.9-3L58.5,61.1"/>
		<path class="st1" d="M66.2,60.5c0.1-0.4,0.4-0.8,0.8-0.9c0-0.2,0.1-1.4,0.2-1.5c0-0.1,0.1-0.1,0.1-0.1h0h0c0,0,0.1,0,0.1,0.1
			c0,0.1,0.1,1.3,0.2,1.5c0.4,0.1,0.7,0.5,0.8,0.9l2.9,0.1c0,0,0,0,0,0c-0.1-1.9-1.8-3.5-4-3.5c-2.3,0-3.9,1.6-4,3.6L66.2,60.5"/>
		<path class="st1" d="M68.3,61.4c-0.2,0.4-0.6,0.8-1.1,0.8c-0.5,0-0.9-0.3-1.1-0.8l-3-0.1c0.2,1.9,1.8,3.4,4,3.4
			c2.2,0,3.8-1.5,4-3.4L68.3,61.4"/>
		<path class="st1" d="M81.8,57.3h-2c-0.2,0-0.3,0.1-0.4,0.3c0,0,0,0,0,0l-0.7,2.6L78,57.6l0-0.1c-0.1-0.1-0.2-0.2-0.4-0.2h-1.8
			c-0.2,0-0.3,0.1-0.4,0.3l-0.8,2.6L74,57.6c0,0,0,0,0,0c-0.1-0.2-0.2-0.3-0.4-0.3h-2c-0.2,0-0.4,0.2-0.4,0.4c0,0,0,0.1,0,0.1
			l0.9,2.9l3.9,0.2c0,0,0.2,0,0.2,0c0,0,0.2,0,0.2,0.1c0,0,0,0,0,0v0v0c0,0,0,0,0,0c0,0-0.1,0.1-0.2,0.1c0,0-0.2,0-0.2,0l-3.8,0.1
			l0.9,3l0,0c0.1,0.2,0.2,0.3,0.4,0.3h1.9c0.2,0,0.3-0.1,0.4-0.3l0.9-2.8l0.9,2.8c0,0,0,0,0,0l0,0c0,0,0,0,0,0
			c0.1,0.1,0.2,0.2,0.4,0.2h1.9c0.2,0,0.3-0.1,0.4-0.3l0-0.1c0,0,0,0,0,0l1.9-6.4c0,0,0,0,0,0c0,0,0-0.1,0-0.1
			C82.2,57.4,82.1,57.3,81.8,57.3"/>
	</g>
</g>
</svg>
